<svg class="main-svg" xmlns="http://www.w3.org/2000/svg" xmlns:xlink="http://www.w3.org/1999/xlink" width="700" height="500" style="" viewBox="0 0 700 500"><rect x="0" y="0" width="700" height="500" style="fill: rgb(255, 255, 255); fill-opacity: 1;"/><defs id="defs-dc43b5"><g class="clips"><clipPath id="clipdc43b5xyplot" class="plotclip"><rect width="528" height="320"/></clipPath><clipPath class="axesclip" id="clipdc43b5x"><rect x="80" y="0" width="528" height="500"/></clipPath><clipPath class="axesclip" id="clipdc43b5y"><rect x="0" y="100" width="700" height="320"/></clipPath><clipPath class="axesclip" id="clipdc43b5xy"><rect x="80" y="100" width="528" height="320"/></clipPath></g><g class="gradients"/><g class="patterns"/></defs><g class="bglayer"><rect class="bg" x="80" y="100" width="528" height="320" style="fill: rgb(0, 0, 0); fill-opacity: 0; stroke-width: 0;"/></g><g class="layer-below"><g class="imagelayer"/><g class="shapelayer"/></g><g class="cartesianlayer"><g class="subplot xy"><g class="layer-subplot"><g class="shapelayer"/><g class="imagelayer"/></g><g class="minor-gridlayer"><g class="x"/><g class="y"/></g><g class="gridlayer"><g class="x"/><g class="y"><path class="ygrid crisp" transform="translate(0,392.93)" d="M80,0h528" style="stroke: rgb(255, 255, 255); stroke-opacity: 1; stroke-width: 1px;"/><path class="ygrid crisp" transform="translate(0,349.27)" d="M80,0h528" style="stroke: rgb(255, 255, 255); stroke-opacity: 1; stroke-width: 1px;"/><path class="ygrid crisp" transform="translate(0,305.62)" d="M80,0h528" style="stroke: rgb(255, 255, 255); stroke-opacity: 1; stroke-width: 1px;"/><path class="ygrid crisp" transform="translate(0,261.96000000000004)" d="M80,0h528" style="stroke: rgb(255, 255, 255); stroke-opacity: 1; stroke-width: 1px;"/><path class="ygrid crisp" transform="translate(0,218.31)" d="M80,0h528" style="stroke: rgb(255, 255, 255); stroke-opacity: 1; stroke-width: 1px;"/><path class="ygrid crisp" transform="translate(0,174.65)" d="M80,0h528" style="stroke: rgb(255, 255, 255); stroke-opacity: 1; stroke-width: 1px;"/><path class="ygrid crisp" transform="translate(0,130.99)" d="M80,0h528" style="stroke: rgb(255, 255, 255); stroke-opacity: 1; stroke-width: 1px;"/></g></g><g class="zerolinelayer"/><path class="xlines-below"/><path class="ylines-below"/><g class="overlines-below"/><g class="xaxislayer-below"/><g class="yaxislayer-below"/><g class="overaxes-below"/><g class="plot" transform="translate(80,100)" clip-path="url(#clipdc43b5xyplot)"><g class="boxlayer mlayer"><g class="trace boxes" style="opacity: 1;"><path class="box" d="M6.73,239.79H19.67M6.73,254.48H19.67V228.75H6.73ZM13.2,254.48V285.24M13.2,228.75V207.89M9.97,285.24H16.43M9.97,207.89H16.43" style="vector-effect: none; stroke-width: 1.25px; stroke: rgb(0, 0, 0); stroke-opacity: 1; fill: rgb(203, 101, 95); fill-opacity: 0.8;"/><g class="points"><path class="point" transform="translate(13.2,304)" d="M3,0A3,3 0 1,1 0,-3A3,3 0 0,1 3,0Z" style="opacity: 1; stroke-width: 0px; fill: rgb(0, 0, 0); fill-opacity: 1;"/><path class="point" transform="translate(13.2,297.35)" d="M3,0A3,3 0 1,1 0,-3A3,3 0 0,1 3,0Z" style="opacity: 1; stroke-width: 0px; fill: rgb(0, 0, 0); fill-opacity: 1;"/></g></g><g class="trace boxes" style="opacity: 1;"><path class="box" d="M33.13,183H46.07M33.13,202.44H46.07V166.62H33.13ZM39.6,202.44V241.08M39.6,166.62V159.19M36.37,241.08H42.83M36.37,159.19H42.83" style="vector-effect: none; stroke-width: 1.25px; stroke: rgb(0, 0, 0); stroke-opacity: 1; fill: rgb(203, 101, 95); fill-opacity: 0.8;"/><g class="points"/></g><g class="trace boxes" style="opacity: 1;"><path class="box" d="M59.53,151.94H72.47M59.53,164.17H72.47V148.66H59.53ZM66,164.17V167.42M66,148.66V135.21M62.77,167.42H69.23M62.77,135.21H69.23" style="vector-effect: none; stroke-width: 1.25px; stroke: rgb(0, 0, 0); stroke-opacity: 1; fill: rgb(203, 101, 95); fill-opacity: 0.8;"/><g class="points"/></g><g class="trace boxes" style="opacity: 1;"><path class="box" d="M85.93,119.11H98.87M85.93,123.25H98.87V113.46H85.93ZM92.4,123.25V135.79M92.4,113.46V106.51M89.17,135.79H95.63M89.17,106.51H95.63" style="vector-effect: none; stroke-width: 1.25px; stroke: rgb(0, 0, 0); stroke-opacity: 1; fill: rgb(203, 101, 95); fill-opacity: 0.8;"/><g class="points"/></g><g class="trace boxes" style="opacity: 1;"><path class="box" d="M112.33,106.94H125.27M112.33,108.36H125.27V100.12H112.33ZM118.8,108.36V110.61M118.8,100.12V93.35M115.57,110.61H122.03M115.57,93.35H122.03" style="vector-effect: none; stroke-width: 1.25px; stroke: rgb(0, 0, 0); stroke-opacity: 1; fill: rgb(203, 101, 95); fill-opacity: 0.8;"/><g class="points"/></g><g class="trace boxes" style="opacity: 1;"><path class="box" d="M138.73,84.2H151.67M138.73,90.07H151.67V81.8H138.73ZM145.2,90.07V93.64M145.2,81.8V80.05M141.97,93.64H148.43M141.97,80.05H148.43" style="vector-effect: none; stroke-width: 1.25px; stroke: rgb(0, 0, 0); stroke-opacity: 1; fill: rgb(203, 101, 95); fill-opacity: 0.8;"/><g class="points"/></g><g class="trace boxes" style="opacity: 1;"><path class="box" d="M165.13,71.69H178.07M165.13,74.75H178.07V66.11H165.13ZM171.6,74.75V79.5M171.6,66.11V64.4M168.37,79.5H174.83M168.37,64.4H174.83" style="vector-effect: none; stroke-width: 1.25px; stroke: rgb(0, 0, 0); stroke-opacity: 1; fill: rgb(203, 101, 95); fill-opacity: 0.8;"/><g class="points"/></g><g class="trace boxes" style="opacity: 1;"><path class="box" d="M191.53,60.81H204.47M191.53,64.27H204.47V58.14H191.53ZM198,64.27V64.77M198,58.14V54.91M194.77,64.77H201.23M194.77,54.91H201.23" style="vector-effect: none; stroke-width: 1.25px; stroke: rgb(0, 0, 0); stroke-opacity: 1; fill: rgb(203, 101, 95); fill-opacity: 0.8;"/><g class="points"/></g><g class="trace boxes" style="opacity: 1;"><path class="box" d="M217.93,52.81H230.87M217.93,54.13H230.87V51.81H217.93ZM224.4,54.13V55.3M224.4,51.81V51.47M221.17,55.3H227.63M221.17,51.47H227.63" style="vector-effect: none; stroke-width: 1.25px; stroke: rgb(0, 0, 0); stroke-opacity: 1; fill: rgb(203, 101, 95); fill-opacity: 0.8;"/><g class="points"/></g><g class="trace boxes" style="opacity: 1;"><path class="box" d="M244.33,47.7H257.27M244.33,48.55H257.27V47.11H244.33ZM250.8,48.55V50.24M250.8,47.11V45.32M247.57,50.24H254.03M247.57,45.32H254.03" style="vector-effect: none; stroke-width: 1.25px; stroke: rgb(0, 0, 0); stroke-opacity: 1; fill: rgb(203, 101, 95); fill-opacity: 0.8;"/><g class="points"><path class="point" transform="translate(250.8,51.86)" d="M3,0A3,3 0 1,1 0,-3A3,3 0 0,1 3,0Z" style="opacity: 1; stroke-width: 0px; fill: rgb(0, 0, 0); fill-opacity: 1;"/></g></g><g class="trace boxes" style="opacity: 1;"><path class="box" d="M270.73,40.06H283.67M270.73,42.56H283.67V36.43H270.73ZM277.2,42.56V45.67M277.2,36.43V34.25M273.97,45.67H280.43M273.97,34.25H280.43" style="vector-effect: none; stroke-width: 1.25px; stroke: rgb(0, 0, 0); stroke-opacity: 1; fill: rgb(203, 101, 95); fill-opacity: 0.8;"/><g class="points"/></g><g class="trace boxes" style="opacity: 1;"><path class="box" d="M297.13,30.72H310.07M297.13,31.72H310.07V30.19H297.13ZM303.6,31.72V33.26M303.6,30.19V29.67M300.37,33.26H306.83M300.37,29.67H306.83" style="vector-effect: none; stroke-width: 1.25px; stroke: rgb(0, 0, 0); stroke-opacity: 1; fill: rgb(203, 101, 95); fill-opacity: 0.8;"/><g class="points"/></g><g class="trace boxes" style="opacity: 1;"><path class="box" d="M323.53,28.49H336.47M323.53,29.21H336.47V27.49H323.53ZM330,29.21V29.31M330,27.49V26.98M326.77,29.31H333.23M326.77,26.98H333.23" style="vector-effect: none; stroke-width: 1.25px; stroke: rgb(0, 0, 0); stroke-opacity: 1; fill: rgb(203, 101, 95); fill-opacity: 0.8;"/><g class="points"/></g><g class="trace boxes" style="opacity: 1;"><path class="box" d="M349.93,25.58H362.87M349.93,26.58H362.87V24.33H349.93ZM356.4,26.58V27.15M356.4,24.33V23.87M353.17,27.15H359.63M353.17,23.87H359.63" style="vector-effect: none; stroke-width: 1.25px; stroke: rgb(0, 0, 0); stroke-opacity: 1; fill: rgb(203, 101, 95); fill-opacity: 0.8;"/><g class="points"/></g><g class="trace boxes" style="opacity: 1;"><path class="box" d="M376.33,23.52H389.27M376.33,24.26H389.27V22.71H376.33ZM382.8,24.26V24.45M382.8,22.71V22.45M379.57,24.45H386.03M379.57,22.45H386.03" style="vector-effect: none; stroke-width: 1.25px; stroke: rgb(0, 0, 0); stroke-opacity: 1; fill: rgb(203, 101, 95); fill-opacity: 0.8;"/><g class="points"/></g><g class="trace boxes" style="opacity: 1;"><path class="box" d="M402.73,20.6H415.67M402.73,21.36H415.67V20.17H402.73ZM409.2,21.36V21.89M409.2,20.17V19.77M405.97,21.89H412.43M405.97,19.77H412.43" style="vector-effect: none; stroke-width: 1.25px; stroke: rgb(0, 0, 0); stroke-opacity: 1; fill: rgb(203, 101, 95); fill-opacity: 0.8;"/><g class="points"/></g><g class="trace boxes" style="opacity: 1;"><path class="box" d="M429.13,19.1H442.07M429.13,19.4H442.07V18.1H429.13ZM435.6,19.4V19.47M435.6,18.1V17.73M432.37,19.47H438.83M432.37,17.73H438.83" style="vector-effect: none; stroke-width: 1.25px; stroke: rgb(0, 0, 0); stroke-opacity: 1; fill: rgb(203, 101, 95); fill-opacity: 0.8;"/><g class="points"/></g><g class="trace boxes" style="opacity: 1;"><path class="box" d="M455.53,17.78H468.47M455.53,17.78H468.47V17.78H455.53ZM462,17.78V17.78M462,17.78V17.78M458.77,17.78H465.23M458.77,17.78H465.23" style="vector-effect: none; stroke-width: 1.25px; stroke: rgb(0, 0, 0); stroke-opacity: 1; fill: rgb(203, 101, 95); fill-opacity: 0.8;"/><g class="points"/></g><g class="trace boxes" style="opacity: 1;"><path class="box" d="M481.93,17.09H494.87M481.93,17.4H494.87V16.51H481.93ZM488.4,17.4V17.51M488.4,16.51V16.31M485.17,17.51H491.63M485.17,16.31H491.63" style="vector-effect: none; stroke-width: 1.25px; stroke: rgb(0, 0, 0); stroke-opacity: 1; fill: rgb(203, 101, 95); fill-opacity: 0.8;"/><g class="points"/></g><g class="trace boxes" style="opacity: 1;"><path class="box" d="M508.33,16H521.27M508.33,16H521.27V16H508.33ZM514.8,16V16M514.8,16V16M511.57,16H518.03M511.57,16H518.03" style="vector-effect: none; stroke-width: 1.25px; stroke: rgb(0, 0, 0); stroke-opacity: 1; fill: rgb(203, 101, 95); fill-opacity: 0.8;"/><g class="points"/></g></g></g><g class="overplot"/><path class="xlines-above crisp" d="M79,420.5H608" style="fill: none; stroke-width: 1px; stroke: rgb(0, 0, 0); stroke-opacity: 1;"/><path class="ylines-above crisp" d="M79.5,100V420" style="fill: none; stroke-width: 1px; stroke: rgb(0, 0, 0); stroke-opacity: 1;"/><g class="overlines-above"/><g class="xaxislayer-above"><path class="xtick ticks crisp" d="M0,421v5" transform="translate(93.2,0)" style="stroke: rgb(68, 68, 68); stroke-opacity: 1; stroke-width: 1.25px;"/><path class="xtick ticks crisp" d="M0,421v5" transform="translate(119.6,0)" style="stroke: rgb(68, 68, 68); stroke-opacity: 1; stroke-width: 1.25px;"/><path class="xtick ticks crisp" d="M0,421v5" transform="translate(146,0)" style="stroke: rgb(68, 68, 68); stroke-opacity: 1; stroke-width: 1.25px;"/><path class="xtick ticks crisp" d="M0,421v5" transform="translate(172.4,0)" style="stroke: rgb(68, 68, 68); stroke-opacity: 1; stroke-width: 1.25px;"/><path class="xtick ticks crisp" d="M0,421v5" transform="translate(198.8,0)" style="stroke: rgb(68, 68, 68); stroke-opacity: 1; stroke-width: 1.25px;"/><path class="xtick ticks crisp" d="M0,421v5" transform="translate(225.2,0)" style="stroke: rgb(68, 68, 68); stroke-opacity: 1; stroke-width: 1.25px;"/><path class="xtick ticks crisp" d="M0,421v5" transform="translate(251.6,0)" style="stroke: rgb(68, 68, 68); stroke-opacity: 1; stroke-width: 1.25px;"/><path class="xtick ticks crisp" d="M0,421v5" transform="translate(278,0)" style="stroke: rgb(68, 68, 68); stroke-opacity: 1; stroke-width: 1.25px;"/><path class="xtick ticks crisp" d="M0,421v5" transform="translate(304.4,0)" style="stroke: rgb(68, 68, 68); stroke-opacity: 1; stroke-width: 1.25px;"/><path class="xtick ticks crisp" d="M0,421v5" transform="translate(330.8,0)" style="stroke: rgb(68, 68, 68); stroke-opacity: 1; stroke-width: 1.25px;"/><path class="xtick ticks crisp" d="M0,421v5" transform="translate(357.2,0)" style="stroke: rgb(68, 68, 68); stroke-opacity: 1; stroke-width: 1.25px;"/><path class="xtick ticks crisp" d="M0,421v5" transform="translate(383.6,0)" style="stroke: rgb(68, 68, 68); stroke-opacity: 1; stroke-width: 1.25px;"/><path class="xtick ticks crisp" d="M0,421v5" transform="translate(410,0)" style="stroke: rgb(68, 68, 68); stroke-opacity: 1; stroke-width: 1.25px;"/><path class="xtick ticks crisp" d="M0,421v5" transform="translate(436.4,0)" style="stroke: rgb(68, 68, 68); stroke-opacity: 1; stroke-width: 1.25px;"/><path class="xtick ticks crisp" d="M0,421v5" transform="translate(462.8,0)" style="stroke: rgb(68, 68, 68); stroke-opacity: 1; stroke-width: 1.25px;"/><path class="xtick ticks crisp" d="M0,421v5" transform="translate(489.2,0)" style="stroke: rgb(68, 68, 68); stroke-opacity: 1; stroke-width: 1.25px;"/><path class="xtick ticks crisp" d="M0,421v5" transform="translate(515.6,0)" style="stroke: rgb(68, 68, 68); stroke-opacity: 1; stroke-width: 1.25px;"/><path class="xtick ticks crisp" d="M0,421v5" transform="translate(542,0)" style="stroke: rgb(68, 68, 68); stroke-opacity: 1; stroke-width: 1.25px;"/><path class="xtick ticks crisp" d="M0,421v5" transform="translate(568.4,0)" style="stroke: rgb(68, 68, 68); stroke-opacity: 1; stroke-width: 1.25px;"/><path class="xtick ticks crisp" d="M0,421v5" transform="translate(594.8,0)" style="stroke: rgb(68, 68, 68); stroke-opacity: 1; stroke-width: 1.25px;"/><g class="xtick"><text text-anchor="start" x="0" y="447.6" transform="translate(93.2,0) rotate(90,0,438.6)" style="font-family: Arial; font-size: 18px; fill: rgb(0, 0, 0); fill-opacity: 1; white-space: pre; opacity: 1;">0.2</text></g><g class="xtick"><text text-anchor="start" x="0" y="447.6" transform="translate(119.6,0) rotate(90,0,438.6)" style="font-family: Arial; font-size: 18px; fill: rgb(0, 0, 0); fill-opacity: 1; white-space: pre; opacity: 1;">0.4</text></g><g class="xtick"><text text-anchor="start" x="0" y="447.6" transform="translate(146,0) rotate(90,0,438.6)" style="font-family: Arial; font-size: 18px; fill: rgb(0, 0, 0); fill-opacity: 1; white-space: pre; opacity: 1;">0.6</text></g><g class="xtick"><text text-anchor="start" x="0" y="447.6" transform="translate(172.4,0) rotate(90,0,438.6)" style="font-family: Arial; font-size: 18px; fill: rgb(0, 0, 0); fill-opacity: 1; white-space: pre; opacity: 1;">0.8</text></g><g class="xtick"><text text-anchor="start" x="0" y="447.6" transform="translate(198.8,0) rotate(90,0,438.6)" style="font-family: Arial; font-size: 18px; fill: rgb(0, 0, 0); fill-opacity: 1; white-space: pre; opacity: 1;">1.0</text></g><g class="xtick"><text text-anchor="start" x="0" y="447.6" transform="translate(225.2,0) rotate(90,0,438.6)" style="font-family: Arial; font-size: 18px; fill: rgb(0, 0, 0); fill-opacity: 1; white-space: pre; opacity: 1;">1.2</text></g><g class="xtick"><text text-anchor="start" x="0" y="447.6" transform="translate(251.6,0) rotate(90,0,438.6)" style="font-family: Arial; font-size: 18px; fill: rgb(0, 0, 0); fill-opacity: 1; white-space: pre; opacity: 1;">1.4</text></g><g class="xtick"><text text-anchor="start" x="0" y="447.6" transform="translate(278,0) rotate(90,0,438.6)" style="font-family: Arial; font-size: 18px; fill: rgb(0, 0, 0); fill-opacity: 1; white-space: pre; opacity: 1;">1.6</text></g><g class="xtick"><text text-anchor="start" x="0" y="447.6" transform="translate(304.4,0) rotate(90,0,438.6)" style="font-family: Arial; font-size: 18px; fill: rgb(0, 0, 0); fill-opacity: 1; white-space: pre; opacity: 1;">1.8</text></g><g class="xtick"><text text-anchor="start" x="0" y="447.6" transform="translate(330.8,0) rotate(90,0,438.6)" style="font-family: Arial; font-size: 18px; fill: rgb(0, 0, 0); fill-opacity: 1; white-space: pre; opacity: 1;">2.0</text></g><g class="xtick"><text text-anchor="start" x="0" y="447.6" transform="translate(357.2,0) rotate(90,0,438.6)" style="font-family: Arial; font-size: 18px; fill: rgb(0, 0, 0); fill-opacity: 1; white-space: pre; opacity: 1;">2.2</text></g><g class="xtick"><text text-anchor="start" x="0" y="447.6" transform="translate(383.6,0) rotate(90,0,438.6)" style="font-family: Arial; font-size: 18px; fill: rgb(0, 0, 0); fill-opacity: 1; white-space: pre; opacity: 1;">2.4</text></g><g class="xtick"><text text-anchor="start" x="0" y="447.6" transform="translate(410,0) rotate(90,0,438.6)" style="font-family: Arial; font-size: 18px; fill: rgb(0, 0, 0); fill-opacity: 1; white-space: pre; opacity: 1;">2.6</text></g><g class="xtick"><text text-anchor="start" x="0" y="447.6" transform="translate(436.4,0) rotate(90,0,438.6)" style="font-family: Arial; font-size: 18px; fill: rgb(0, 0, 0); fill-opacity: 1; white-space: pre; opacity: 1;">2.8</text></g><g class="xtick"><text text-anchor="start" x="0" y="447.6" transform="translate(462.8,0) rotate(90,0,438.6)" style="font-family: Arial; font-size: 18px; fill: rgb(0, 0, 0); fill-opacity: 1; white-space: pre; opacity: 1;">3.0</text></g><g class="xtick"><text text-anchor="start" x="0" y="447.6" transform="translate(489.2,0) rotate(90,0,438.6)" style="font-family: Arial; font-size: 18px; fill: rgb(0, 0, 0); fill-opacity: 1; white-space: pre; opacity: 1;">3.2</text></g><g class="xtick"><text text-anchor="start" x="0" y="447.6" transform="translate(515.6,0) rotate(90,0,438.6)" style="font-family: Arial; font-size: 18px; fill: rgb(0, 0, 0); fill-opacity: 1; white-space: pre; opacity: 1;">3.4</text></g><g class="xtick"><text text-anchor="start" x="0" y="447.6" transform="translate(542,0) rotate(90,0,438.6)" style="font-family: Arial; font-size: 18px; fill: rgb(0, 0, 0); fill-opacity: 1; white-space: pre; opacity: 1;">3.6</text></g><g class="xtick"><text text-anchor="start" x="0" y="447.6" transform="translate(568.4,0) rotate(90,0,438.6)" style="font-family: Arial; font-size: 18px; fill: rgb(0, 0, 0); fill-opacity: 1; white-space: pre; opacity: 1;">3.8</text></g><g class="xtick"><text text-anchor="start" x="0" y="447.6" transform="translate(594.8,0) rotate(90,0,438.6)" style="font-family: Arial; font-size: 18px; fill: rgb(0, 0, 0); fill-opacity: 1; white-space: pre; opacity: 1;">4.0</text></g></g><g class="yaxislayer-above"><path class="ytick ticks crisp" d="M79,0h-5" transform="translate(0,392.93)" style="stroke: rgb(68, 68, 68); stroke-opacity: 1; stroke-width: 1.25px;"/><path class="ytick ticks crisp" d="M79,0h-5" transform="translate(0,349.27)" style="stroke: rgb(68, 68, 68); stroke-opacity: 1; stroke-width: 1.25px;"/><path class="ytick ticks crisp" d="M79,0h-5" transform="translate(0,305.62)" style="stroke: rgb(68, 68, 68); stroke-opacity: 1; stroke-width: 1.25px;"/><path class="ytick ticks crisp" d="M79,0h-5" transform="translate(0,261.96000000000004)" style="stroke: rgb(68, 68, 68); stroke-opacity: 1; stroke-width: 1.25px;"/><path class="ytick ticks crisp" d="M79,0h-5" transform="translate(0,218.31)" style="stroke: rgb(68, 68, 68); stroke-opacity: 1; stroke-width: 1.25px;"/><path class="ytick ticks crisp" d="M79,0h-5" transform="translate(0,174.65)" style="stroke: rgb(68, 68, 68); stroke-opacity: 1; stroke-width: 1.25px;"/><path class="ytick ticks crisp" d="M79,0h-5" transform="translate(0,130.99)" style="stroke: rgb(68, 68, 68); stroke-opacity: 1; stroke-width: 1.25px;"/><g class="ytick"><text text-anchor="end" x="70.4" y="6.3" transform="translate(0,392.93)" style="font-family: Arial; font-size: 18px; fill: rgb(0, 0, 0); fill-opacity: 1; white-space: pre; opacity: 1;">0.4</text></g><g class="ytick"><text text-anchor="end" x="70.4" y="6.3" style="font-family: Arial; font-size: 18px; fill: rgb(0, 0, 0); fill-opacity: 1; white-space: pre; opacity: 1;" transform="translate(0,349.27)">0.45</text></g><g class="ytick"><text text-anchor="end" x="70.4" y="6.3" style="font-family: Arial; font-size: 18px; fill: rgb(0, 0, 0); fill-opacity: 1; white-space: pre; opacity: 1;" transform="translate(0,305.62)">0.5</text></g><g class="ytick"><text text-anchor="end" x="70.4" y="6.3" style="font-family: Arial; font-size: 18px; fill: rgb(0, 0, 0); fill-opacity: 1; white-space: pre; opacity: 1;" transform="translate(0,261.96000000000004)">0.55</text></g><g class="ytick"><text text-anchor="end" x="70.4" y="6.3" style="font-family: Arial; font-size: 18px; fill: rgb(0, 0, 0); fill-opacity: 1; white-space: pre; opacity: 1;" transform="translate(0,218.31)">0.6</text></g><g class="ytick"><text text-anchor="end" x="70.4" y="6.3" style="font-family: Arial; font-size: 18px; fill: rgb(0, 0, 0); fill-opacity: 1; white-space: pre; opacity: 1;" transform="translate(0,174.65)">0.65</text></g><g class="ytick"><text text-anchor="end" x="70.4" y="6.3" style="font-family: Arial; font-size: 18px; fill: rgb(0, 0, 0); fill-opacity: 1; white-space: pre; opacity: 1;" transform="translate(0,130.99)">0.7</text></g></g><g class="overaxes-above"/></g></g><g class="polarlayer"/><g class="smithlayer"/><g class="ternarylayer"/><g class="geolayer"/><g class="funnelarealayer"/><g class="pielayer"/><g class="iciclelayer"/><g class="treemaplayer"/><g class="sunburstlayer"/><g class="glimages"/><defs id="topdefs-dc43b5"><g class="clips"/><clipPath id="legenddc43b5"><rect width="69" height="320" x="0" y="0"/></clipPath></defs><g class="layer-above"><g class="imagelayer"/><g class="shapelayer"/></g><g class="infolayer"><g class="legend" pointer-events="all" transform="translate(618.5600000000001,100)"><rect class="bg" shape-rendering="crispEdges" style="stroke: rgb(68, 68, 68); stroke-opacity: 1; fill: rgb(255, 255, 255); fill-opacity: 1; stroke-width: 0px;" width="69" height="320" x="0" y="0"/><g class="scrollbox" transform="" clip-path="url(#legenddc43b5)"><g class="groups"><g class="traces" transform="translate(0,14.5)" style="opacity: 1;"><text class="legendtext" text-anchor="start" x="40" y="4.680000000000001" style="font-family: 'Open Sans', verdana, arial, sans-serif; font-size: 12px; fill: rgb(42, 63, 95); fill-opacity: 1; white-space: pre;">0.20</text><g class="layers" style="opacity: 1;"><g class="legendfill"/><g class="legendlines"/><g class="legendsymbols"><g class="legendpoints"><path class="legendbox" d="M6,6H-6V-6H6Z" transform="translate(20,0)" style="stroke-width: 1.25px; fill: rgb(203, 101, 95); fill-opacity: 0.8; stroke: rgb(0, 0, 0); stroke-opacity: 1;"/></g></g></g><rect class="legendtoggle" x="0" y="-9.5" width="63.6875" height="19" style="fill: rgb(0, 0, 0); fill-opacity: 0;"/></g><g class="traces" transform="translate(0,33.5)" style="opacity: 1;"><text class="legendtext" text-anchor="start" x="40" y="4.680000000000001" style="font-family: 'Open Sans', verdana, arial, sans-serif; font-size: 12px; fill: rgb(42, 63, 95); fill-opacity: 1; white-space: pre;">0.40</text><g class="layers" style="opacity: 1;"><g class="legendfill"/><g class="legendlines"/><g class="legendsymbols"><g class="legendpoints"><path class="legendbox" d="M6,6H-6V-6H6Z" transform="translate(20,0)" style="stroke-width: 1.25px; fill: rgb(203, 101, 95); fill-opacity: 0.8; stroke: rgb(0, 0, 0); stroke-opacity: 1;"/></g></g></g><rect class="legendtoggle" x="0" y="-9.5" width="63.6875" height="19" style="fill: rgb(0, 0, 0); fill-opacity: 0;"/></g><g class="traces" transform="translate(0,52.5)" style="opacity: 1;"><text class="legendtext" text-anchor="start" x="40" y="4.680000000000001" style="font-family: 'Open Sans', verdana, arial, sans-serif; font-size: 12px; fill: rgb(42, 63, 95); fill-opacity: 1; white-space: pre;">0.60</text><g class="layers" style="opacity: 1;"><g class="legendfill"/><g class="legendlines"/><g class="legendsymbols"><g class="legendpoints"><path class="legendbox" d="M6,6H-6V-6H6Z" transform="translate(20,0)" style="stroke-width: 1.25px; fill: rgb(203, 101, 95); fill-opacity: 0.8; stroke: rgb(0, 0, 0); stroke-opacity: 1;"/></g></g></g><rect class="legendtoggle" x="0" y="-9.5" width="63.6875" height="19" style="fill: rgb(0, 0, 0); fill-opacity: 0;"/></g><g class="traces" transform="translate(0,71.5)" style="opacity: 1;"><text class="legendtext" text-anchor="start" x="40" y="4.680000000000001" style="font-family: 'Open Sans', verdana, arial, sans-serif; font-size: 12px; fill: rgb(42, 63, 95); fill-opacity: 1; white-space: pre;">0.80</text><g class="layers" style="opacity: 1;"><g class="legendfill"/><g class="legendlines"/><g class="legendsymbols"><g class="legendpoints"><path class="legendbox" d="M6,6H-6V-6H6Z" transform="translate(20,0)" style="stroke-width: 1.25px; fill: rgb(203, 101, 95); fill-opacity: 0.8; stroke: rgb(0, 0, 0); stroke-opacity: 1;"/></g></g></g><rect class="legendtoggle" x="0" y="-9.5" width="63.6875" height="19" style="fill: rgb(0, 0, 0); fill-opacity: 0;"/></g><g class="traces" transform="translate(0,90.5)" style="opacity: 1;"><text class="legendtext" text-anchor="start" x="40" y="4.680000000000001" style="font-family: 'Open Sans', verdana, arial, sans-serif; font-size: 12px; fill: rgb(42, 63, 95); fill-opacity: 1; white-space: pre;">1.00</text><g class="layers" style="opacity: 1;"><g class="legendfill"/><g class="legendlines"/><g class="legendsymbols"><g class="legendpoints"><path class="legendbox" d="M6,6H-6V-6H6Z" transform="translate(20,0)" style="stroke-width: 1.25px; fill: rgb(203, 101, 95); fill-opacity: 0.8; stroke: rgb(0, 0, 0); stroke-opacity: 1;"/></g></g></g><rect class="legendtoggle" x="0" y="-9.5" width="63.6875" height="19" style="fill: rgb(0, 0, 0); fill-opacity: 0;"/></g><g class="traces" transform="translate(0,109.5)" style="opacity: 1;"><text class="legendtext" text-anchor="start" x="40" y="4.680000000000001" style="font-family: 'Open Sans', verdana, arial, sans-serif; font-size: 12px; fill: rgb(42, 63, 95); fill-opacity: 1; white-space: pre;">1.20</text><g class="layers" style="opacity: 1;"><g class="legendfill"/><g class="legendlines"/><g class="legendsymbols"><g class="legendpoints"><path class="legendbox" d="M6,6H-6V-6H6Z" transform="translate(20,0)" style="stroke-width: 1.25px; fill: rgb(203, 101, 95); fill-opacity: 0.8; stroke: rgb(0, 0, 0); stroke-opacity: 1;"/></g></g></g><rect class="legendtoggle" x="0" y="-9.5" width="63.6875" height="19" style="fill: rgb(0, 0, 0); fill-opacity: 0;"/></g><g class="traces" transform="translate(0,128.5)" style="opacity: 1;"><text class="legendtext" text-anchor="start" x="40" y="4.680000000000001" style="font-family: 'Open Sans', verdana, arial, sans-serif; font-size: 12px; fill: rgb(42, 63, 95); fill-opacity: 1; white-space: pre;">1.40</text><g class="layers" style="opacity: 1;"><g class="legendfill"/><g class="legendlines"/><g class="legendsymbols"><g class="legendpoints"><path class="legendbox" d="M6,6H-6V-6H6Z" transform="translate(20,0)" style="stroke-width: 1.25px; fill: rgb(203, 101, 95); fill-opacity: 0.8; stroke: rgb(0, 0, 0); stroke-opacity: 1;"/></g></g></g><rect class="legendtoggle" x="0" y="-9.5" width="63.6875" height="19" style="fill: rgb(0, 0, 0); fill-opacity: 0;"/></g><g class="traces" transform="translate(0,147.5)" style="opacity: 1;"><text class="legendtext" text-anchor="start" x="40" y="4.680000000000001" style="font-family: 'Open Sans', verdana, arial, sans-serif; font-size: 12px; fill: rgb(42, 63, 95); fill-opacity: 1; white-space: pre;">1.60</text><g class="layers" style="opacity: 1;"><g class="legendfill"/><g class="legendlines"/><g class="legendsymbols"><g class="legendpoints"><path class="legendbox" d="M6,6H-6V-6H6Z" transform="translate(20,0)" style="stroke-width: 1.25px; fill: rgb(203, 101, 95); fill-opacity: 0.8; stroke: rgb(0, 0, 0); stroke-opacity: 1;"/></g></g></g><rect class="legendtoggle" x="0" y="-9.5" width="63.6875" height="19" style="fill: rgb(0, 0, 0); fill-opacity: 0;"/></g><g class="traces" transform="translate(0,166.5)" style="opacity: 1;"><text class="legendtext" text-anchor="start" x="40" y="4.680000000000001" style="font-family: 'Open Sans', verdana, arial, sans-serif; font-size: 12px; fill: rgb(42, 63, 95); fill-opacity: 1; white-space: pre;">1.80</text><g class="layers" style="opacity: 1;"><g class="legendfill"/><g class="legendlines"/><g class="legendsymbols"><g class="legendpoints"><path class="legendbox" d="M6,6H-6V-6H6Z" transform="translate(20,0)" style="stroke-width: 1.25px; fill: rgb(203, 101, 95); fill-opacity: 0.8; stroke: rgb(0, 0, 0); stroke-opacity: 1;"/></g></g></g><rect class="legendtoggle" x="0" y="-9.5" width="63.6875" height="19" style="fill: rgb(0, 0, 0); fill-opacity: 0;"/></g><g class="traces" transform="translate(0,185.5)" style="opacity: 1;"><text class="legendtext" text-anchor="start" x="40" y="4.680000000000001" style="font-family: 'Open Sans', verdana, arial, sans-serif; font-size: 12px; fill: rgb(42, 63, 95); fill-opacity: 1; white-space: pre;">2.00</text><g class="layers" style="opacity: 1;"><g class="legendfill"/><g class="legendlines"/><g class="legendsymbols"><g class="legendpoints"><path class="legendbox" d="M6,6H-6V-6H6Z" transform="translate(20,0)" style="stroke-width: 1.25px; fill: rgb(203, 101, 95); fill-opacity: 0.8; stroke: rgb(0, 0, 0); stroke-opacity: 1;"/></g></g></g><rect class="legendtoggle" x="0" y="-9.5" width="63.6875" height="19" style="fill: rgb(0, 0, 0); fill-opacity: 0;"/></g><g class="traces" transform="translate(0,204.5)" style="opacity: 1;"><text class="legendtext" text-anchor="start" x="40" y="4.680000000000001" style="font-family: 'Open Sans', verdana, arial, sans-serif; font-size: 12px; fill: rgb(42, 63, 95); fill-opacity: 1; white-space: pre;">2.20</text><g class="layers" style="opacity: 1;"><g class="legendfill"/><g class="legendlines"/><g class="legendsymbols"><g class="legendpoints"><path class="legendbox" d="M6,6H-6V-6H6Z" transform="translate(20,0)" style="stroke-width: 1.25px; fill: rgb(203, 101, 95); fill-opacity: 0.8; stroke: rgb(0, 0, 0); stroke-opacity: 1;"/></g></g></g><rect class="legendtoggle" x="0" y="-9.5" width="63.6875" height="19" style="fill: rgb(0, 0, 0); fill-opacity: 0;"/></g><g class="traces" transform="translate(0,223.5)" style="opacity: 1;"><text class="legendtext" text-anchor="start" x="40" y="4.680000000000001" style="font-family: 'Open Sans', verdana, arial, sans-serif; font-size: 12px; fill: rgb(42, 63, 95); fill-opacity: 1; white-space: pre;">2.40</text><g class="layers" style="opacity: 1;"><g class="legendfill"/><g class="legendlines"/><g class="legendsymbols"><g class="legendpoints"><path class="legendbox" d="M6,6H-6V-6H6Z" transform="translate(20,0)" style="stroke-width: 1.25px; fill: rgb(203, 101, 95); fill-opacity: 0.8; stroke: rgb(0, 0, 0); stroke-opacity: 1;"/></g></g></g><rect class="legendtoggle" x="0" y="-9.5" width="63.6875" height="19" style="fill: rgb(0, 0, 0); fill-opacity: 0;"/></g><g class="traces" transform="translate(0,242.5)" style="opacity: 1;"><text class="legendtext" text-anchor="start" x="40" y="4.680000000000001" style="font-family: 'Open Sans', verdana, arial, sans-serif; font-size: 12px; fill: rgb(42, 63, 95); fill-opacity: 1; white-space: pre;">2.60</text><g class="layers" style="opacity: 1;"><g class="legendfill"/><g class="legendlines"/><g class="legendsymbols"><g class="legendpoints"><path class="legendbox" d="M6,6H-6V-6H6Z" transform="translate(20,0)" style="stroke-width: 1.25px; fill: rgb(203, 101, 95); fill-opacity: 0.8; stroke: rgb(0, 0, 0); stroke-opacity: 1;"/></g></g></g><rect class="legendtoggle" x="0" y="-9.5" width="63.6875" height="19" style="fill: rgb(0, 0, 0); fill-opacity: 0;"/></g><g class="traces" transform="translate(0,261.5)" style="opacity: 1;"><text class="legendtext" text-anchor="start" x="40" y="4.680000000000001" style="font-family: 'Open Sans', verdana, arial, sans-serif; font-size: 12px; fill: rgb(42, 63, 95); fill-opacity: 1; white-space: pre;">2.80</text><g class="layers" style="opacity: 1;"><g class="legendfill"/><g class="legendlines"/><g class="legendsymbols"><g class="legendpoints"><path class="legendbox" d="M6,6H-6V-6H6Z" transform="translate(20,0)" style="stroke-width: 1.25px; fill: rgb(203, 101, 95); fill-opacity: 0.8; stroke: rgb(0, 0, 0); stroke-opacity: 1;"/></g></g></g><rect class="legendtoggle" x="0" y="-9.5" width="63.6875" height="19" style="fill: rgb(0, 0, 0); fill-opacity: 0;"/></g><g class="traces" transform="translate(0,280.5)" style="opacity: 1;"><text class="legendtext" text-anchor="start" x="40" y="4.680000000000001" style="font-family: 'Open Sans', verdana, arial, sans-serif; font-size: 12px; fill: rgb(42, 63, 95); fill-opacity: 1; white-space: pre;">3.00</text><g class="layers" style="opacity: 1;"><g class="legendfill"/><g class="legendlines"/><g class="legendsymbols"><g class="legendpoints"><path class="legendbox" d="M6,6H-6V-6H6Z" transform="translate(20,0)" style="stroke-width: 1.25px; fill: rgb(203, 101, 95); fill-opacity: 0.8; stroke: rgb(0, 0, 0); stroke-opacity: 1;"/></g></g></g><rect class="legendtoggle" x="0" y="-9.5" width="63.6875" height="19" style="fill: rgb(0, 0, 0); fill-opacity: 0;"/></g><g class="traces" transform="translate(0,299.5)" style="opacity: 1;"><text class="legendtext" text-anchor="start" x="40" y="4.680000000000001" style="font-family: 'Open Sans', verdana, arial, sans-serif; font-size: 12px; fill: rgb(42, 63, 95); fill-opacity: 1; white-space: pre;">3.20</text><g class="layers" style="opacity: 1;"><g class="legendfill"/><g class="legendlines"/><g class="legendsymbols"><g class="legendpoints"><path class="legendbox" d="M6,6H-6V-6H6Z" transform="translate(20,0)" style="stroke-width: 1.25px; fill: rgb(203, 101, 95); fill-opacity: 0.8; stroke: rgb(0, 0, 0); stroke-opacity: 1;"/></g></g></g><rect class="legendtoggle" x="0" y="-9.5" width="63.6875" height="19" style="fill: rgb(0, 0, 0); fill-opacity: 0;"/></g><g class="traces" transform="translate(0,318.5)" style="opacity: 1;"><text class="legendtext" text-anchor="start" x="40" y="4.680000000000001" style="font-family: 'Open Sans', verdana, arial, sans-serif; font-size: 12px; fill: rgb(42, 63, 95); fill-opacity: 1; white-space: pre;">3.40</text><g class="layers" style="opacity: 1;"><g class="legendfill"/><g class="legendlines"/><g class="legendsymbols"><g class="legendpoints"><path class="legendbox" d="M6,6H-6V-6H6Z" transform="translate(20,0)" style="stroke-width: 1.25px; fill: rgb(203, 101, 95); fill-opacity: 0.8; stroke: rgb(0, 0, 0); stroke-opacity: 1;"/></g></g></g><rect class="legendtoggle" x="0" y="-9.5" width="63.6875" height="19" style="fill: rgb(0, 0, 0); fill-opacity: 0;"/></g><g class="traces" transform="translate(0,337.5)" style="opacity: 1;"><text class="legendtext" text-anchor="start" x="40" y="4.680000000000001" style="font-family: 'Open Sans', verdana, arial, sans-serif; font-size: 12px; fill: rgb(42, 63, 95); fill-opacity: 1; white-space: pre;">3.60</text><g class="layers" style="opacity: 1;"><g class="legendfill"/><g class="legendlines"/><g class="legendsymbols"><g class="legendpoints"><path class="legendbox" d="M6,6H-6V-6H6Z" transform="translate(20,0)" style="stroke-width: 1.25px; fill: rgb(203, 101, 95); fill-opacity: 0.8; stroke: rgb(0, 0, 0); stroke-opacity: 1;"/></g></g></g><rect class="legendtoggle" x="0" y="-9.5" width="63.6875" height="19" style="fill: rgb(0, 0, 0); fill-opacity: 0;"/></g><g class="traces" transform="translate(0,356.5)" style="opacity: 1;"><text class="legendtext" text-anchor="start" x="40" y="4.680000000000001" style="font-family: 'Open Sans', verdana, arial, sans-serif; font-size: 12px; fill: rgb(42, 63, 95); fill-opacity: 1; white-space: pre;">3.80</text><g class="layers" style="opacity: 1;"><g class="legendfill"/><g class="legendlines"/><g class="legendsymbols"><g class="legendpoints"><path class="legendbox" d="M6,6H-6V-6H6Z" transform="translate(20,0)" style="stroke-width: 1.25px; fill: rgb(203, 101, 95); fill-opacity: 0.8; stroke: rgb(0, 0, 0); stroke-opacity: 1;"/></g></g></g><rect class="legendtoggle" x="0" y="-9.5" width="63.6875" height="19" style="fill: rgb(0, 0, 0); fill-opacity: 0;"/></g><g class="traces" transform="translate(0,375.5)" style="opacity: 1;"><text class="legendtext" text-anchor="start" x="40" y="4.680000000000001" style="font-family: 'Open Sans', verdana, arial, sans-serif; font-size: 12px; fill: rgb(42, 63, 95); fill-opacity: 1; white-space: pre;">4.00</text><g class="layers" style="opacity: 1;"><g class="legendfill"/><g class="legendlines"/><g class="legendsymbols"><g class="legendpoints"><path class="legendbox" d="M6,6H-6V-6H6Z" transform="translate(20,0)" style="stroke-width: 1.25px; fill: rgb(203, 101, 95); fill-opacity: 0.8; stroke: rgb(0, 0, 0); stroke-opacity: 1;"/></g></g></g><rect class="legendtoggle" x="0" y="-9.5" width="63.6875" height="19" style="fill: rgb(0, 0, 0); fill-opacity: 0;"/></g></g></g><rect class="scrollbar" rx="20" ry="3" width="0" height="0" style="fill: rgb(128, 139, 164); fill-opacity: 1;" x="0" y="0"/></g><g class="g-gtitle"/><g class="g-xtitle"/><g class="g-ytitle"/></g></svg>